<?xml version="1.0" encoding="iso-8859-1"?>
<!-- Generator: Adobe Illustrator 22.1.0, SVG Export Plug-In . SVG Version: 6.00 Build 0)  -->
<svg xmlns="http://www.w3.org/2000/svg" xmlns:xlink="http://www.w3.org/1999/xlink" version="1.1" id="Layer_1_1_" x="0px" y="0px" viewBox="0 0 64 64" style="enable-background:new 0 0 64 64;" xml:space="preserve" width="512" height="512">
<linearGradient id="SVGID_1_" gradientUnits="userSpaceOnUse" x1="32" y1="63" x2="32" y2="1.7637">
	<stop offset="0" style="stop-color:#9F2FFF"/>
	<stop offset="1" style="stop-color:#0BB1D3"/>
</linearGradient>
<path style="fill:url(#SVGID_1_);" d="M36,63V45.159c3.319-1.456,5.694-4.661,5.964-8.444c1.072-0.207,2.122-0.521,3.141-0.957  l0.155-0.067c2.894-1.239,5.305-3.305,6.972-5.974C54.043,26.819,55,23.481,55,20.063c0-2.813-0.665-5.629-1.923-8.145L49,3.764  l-1.63,3.259c-0.536,1.073-1.194,2.072-1.946,2.999l-4.462-8.181l-0.959,1.917c-1.057,2.114-2.414,4.045-4.011,5.778  c-0.664-1.201-1.311-2.41-1.923-3.633L32,1.764l-2.069,4.139c-0.611,1.222-1.259,2.431-1.923,3.633  c-1.597-1.732-2.954-3.663-4.011-5.778l-0.959-1.917l-4.462,8.181c-0.752-0.927-1.41-1.927-1.946-2.999L15,3.764l-4.077,8.154  C9.665,14.434,9,17.25,9,20.063c0,3.417,0.957,6.755,2.769,9.653c1.667,2.669,4.078,4.735,6.969,5.973l0.161,0.069  c1.017,0.435,2.066,0.75,3.138,0.956c0.27,3.782,2.645,6.988,5.964,8.444V63H36z M34,61h-4V45.798C30.646,45.93,31.315,46,32,46  s1.354-0.07,2-0.202V61z M48.998,8.232l2.29,4.581C52.408,15.052,53,17.56,53,20.063c0,3.042-0.853,6.014-2.464,8.593  c-1.451,2.321-3.548,4.117-6.066,5.197l-0.155,0.067c-1.141,0.489-2.33,0.8-3.547,0.956l0.699-0.621  C45.619,30.565,48,25.263,48,19.708c0-2.659-0.56-5.299-1.614-7.734C47.407,10.837,48.288,9.587,48.998,8.232z M41.01,6.105  l2.857,5.24C45.263,13.903,46,16.795,46,19.708c0,3.995-1.393,7.832-3.856,10.908C42.702,28.979,43,27.257,43,25.5  c0-3.143-0.921-6.185-2.664-8.799c-1.156-1.734-2.264-3.515-3.315-5.329C38.561,9.78,39.903,8.02,41.01,6.105z M31.72,6.797  L32,6.236l0.28,0.561c1.895,3.789,4.045,7.494,6.392,11.013C40.195,20.095,41,22.754,41,25.5s-0.805,5.405-2.328,7.689L37.465,35  h-1.384l0.086-0.107C37.994,32.608,39,29.74,39,26.816c0-1.998-0.473-3.998-1.365-5.781l-0.74-1.481l-1.789,0.894l0.74,1.482  C36.601,23.437,37,25.127,37,26.816c0,2.472-0.851,4.896-2.396,6.827L33.519,35H33v-6h-2v6h-0.519l-1.086-1.357  C27.851,31.712,27,29.288,27,26.816c0-1.689,0.399-3.379,1.154-4.888l0.74-1.481l-1.789-0.894l-0.74,1.48  C25.473,22.818,25,24.818,25,26.816c0,2.924,1.006,5.792,2.833,8.077L27.919,35h-1.384l-1.207-1.811  C23.805,30.905,23,28.246,23,25.5s0.805-5.405,2.328-7.689C27.675,14.291,29.825,10.586,31.72,6.797z M22.99,6.105  c1.107,1.914,2.449,3.675,3.989,5.267c-1.052,1.814-2.159,3.594-3.315,5.329C21.921,19.315,21,22.357,21,25.5  c0,1.757,0.298,3.479,0.856,5.116C19.393,27.54,18,23.704,18,19.708c0-2.914,0.737-5.805,2.133-8.363L22.99,6.105z M19.527,33.853  c-2.516-1.079-4.612-2.875-6.063-5.196C11.853,26.077,11,23.106,11,20.063c0-2.504,0.592-5.011,1.712-7.25l2.29-4.581  c0.711,1.355,1.591,2.605,2.612,3.742C16.56,14.41,16,17.049,16,19.708c0,5.554,2.381,10.857,6.533,14.547l0.699,0.621  c-1.216-0.157-2.405-0.467-3.544-0.955L19.527,33.853z M24.063,36.956C24.357,36.972,24.65,37,24.946,37h14.107  c0.297,0,0.589-0.028,0.884-0.044C39.463,40.917,36.087,44,32,44S24.537,40.917,24.063,36.956z M33,27h-2v-9h2V27z"/>
</svg>
