<?xml version="1.0"?>
<svg xmlns="http://www.w3.org/2000/svg" height="512px" viewBox="-60 0 489 489.888" width="512px" class=""><g><path d="m345.90625 84.816406-25.460938-50.929687-5.882812 11.761719c-6.335938 12.679687-14.628906 24.261718-24.46875 34.457031-1.167969-2.457031-2.378906-4.890625-3.683594-7.289063l-29.964844-54.929687-.824218 1.640625c-10.050782 20.113281-23.28125 38.464844-39.175782 54.359375l.445313 5.585937c-8.09375-14.023437-15.796875-28.289062-23.046875-42.777344l-9.398438-18.808593-9.402343 18.800781c-7.246094 14.496094-14.949219 28.753906-23.046875 42.777344l.449218-5.578125c-15.898437-15.894531-29.128906-34.246094-39.175781-54.359375l-.824219-1.640625-29.960937 54.9375c-1.304687 2.390625-2.511719 4.832031-3.679687 7.289062-9.839844-10.191406-18.136719-21.777343-24.472657-34.457031l-5.886719-11.769531-25.464843 50.929687c-9.558594 19.121094-14.535157 40.199219-14.535157 61.574219 0 25.808594 7.253907 51.097656 20.925782 72.984375 12.417968 19.863281 30.609375 35.457031 52.136718 44.679688l1.265626.546874c14.300781 6.125 29.6875 9.285157 45.238281 9.285157h112.863281c15.554688 0 30.9375-3.160157 45.234375-9.285157l1.261719-.546874c21.527344-9.222657 39.722656-24.816407 52.136718-44.679688 13.679688-21.878906 20.9375-47.175781 20.9375-72.984375 0-21.375-4.976562-42.453125-14.539062-61.574219zm0 0" fill="#f0bc5e" data-original="#F0BC5E" class="" style="fill:#275EA4" data-old_color="#275C9F"/><path d="m353.058594 81.230469-32.613282-65.230469-13.042968 26.070312c-4.285156 8.585938-9.550782 16.578126-15.566406 23.992188l-35.695313-65.445312-7.671875 15.335937c-8.457031 16.910156-19.3125 32.359375-32.089844 46.222656-5.3125-9.609375-10.488281-19.28125-15.382812-29.0625l-16.550782-33.113281-16.554687 33.113281c-4.886719 9.773438-10.070313 19.445313-15.382813 29.0625-12.777343-13.855469-23.632812-29.304687-32.085937-46.222656l-7.675781-15.335937-35.695313 65.445312c-6.015625-7.414062-11.277343-15.414062-15.566406-23.992188l-13.039063-26.070312-32.617187 65.230469c-10.0625 20.128906-15.382813 42.65625-15.382813 65.160156 0 27.335937 7.65625 54.042969 22.152344 77.226563 13.335938 21.351562 32.621094 37.878906 55.75 47.78125l1.289063.554687c8.136719 3.480469 16.527343 6 25.101562 7.648437 2.160157 30.253907 21.160157 55.902344 47.714844 67.550782v142.734375h64v-142.726563c26.550781-11.648437 45.550781-37.289062 47.710937-67.550781 8.574219-1.65625 16.976563-4.167969 25.128907-7.65625l1.238281-.539063c23.152344-9.910156 42.441406-26.4375 55.777344-47.789062 14.480468-23.183594 22.136718-49.890625 22.136718-77.234375 0-22.503906-5.320312-45.03125-15.386718-65.160156zm-96.535156-46.503907 22.855468 41.921876c11.167969 20.464843 17.066406 43.597656 17.066406 66.902343 0 31.960938-11.144531 62.65625-30.847656 87.265625 4.460938-13.097656 6.847656-26.871094 6.847656-40.929687 0-25.144531-7.371093-49.480469-21.3125-70.390625-9.25-13.871094-18.113281-28.121094-26.519531-42.632813 12.320313-12.734375 23.054688-26.816406 31.910157-42.136719zm-74.320313 5.539063 2.242187-4.488281 2.238282 4.488281c15.160156 30.308594 32.359375 59.949219 51.136718 88.101563 12.183594 18.28125 18.625 39.554687 18.625 61.519531 0 21.96875-6.441406 43.242187-18.625 61.511719l-9.65625 14.488281h-11.070312l.6875-.855469c14.613281-18.277344 22.664062-41.222656 22.664062-64.617188 0-15.980468-3.785156-31.980468-10.921874-46.246093l-5.917969-11.847657-14.3125 7.152344 5.917969 11.855469c6.042968 12.054687 9.234374 25.574219 9.234374 39.085937 0 19.777344-6.808593 39.171876-19.167968 54.617188l-8.679688 10.855469h-4.152344v-48h-16v48h-4.152343l-8.6875-10.855469c-12.351563-15.445312-19.160157-34.839844-19.160157-54.617188 0-13.511718 3.191407-27.03125 9.230469-39.101562l5.921875-11.847656-14.3125-7.152344-5.921875 11.839844c-7.136719 14.28125-10.917969 30.28125-10.917969 46.261718 0 23.394532 8.046876 46.339844 22.664063 64.617188l.6875.855469h-11.074219l-9.65625-14.488281c-12.183594-18.269532-18.621094-39.542969-18.621094-61.511719 0-21.964844 6.4375-43.238281 18.621094-61.511719 18.777344-28.160156 35.976563-57.800781 51.136719-88.109375zm-69.839844-5.539063c8.855469 15.3125 19.59375 29.402344 31.914063 42.136719-8.417969 14.511719-17.273438 28.753907-26.519532 42.632813-13.945312 20.910156-21.3125 45.246094-21.3125 70.390625 0 14.058593 2.382813 27.832031 6.847657 40.929687-19.703125-24.609375-30.847657-55.296875-30.847657-87.265625 0-23.3125 5.894532-46.4375 17.0625-66.902343zm-27.703125 221.984376c-20.128906-8.632813-36.894531-23-48.503906-41.566407-12.886719-20.640625-19.710938-44.410156-19.710938-68.753906 0-20.03125 4.734376-40.085937 13.695313-58l18.320313-36.648437c5.6875 10.84375 12.726562 20.84375 20.894531 29.9375-8.429688 19.488281-12.910157 40.601562-12.910157 61.871093 0 44.433594 19.046876 86.855469 52.261719 116.378907l5.59375 4.964843c-9.730469-1.253906-19.242187-3.734375-28.351562-7.636719zm115.785156 217.175781h-32v-121.613281c5.167969 1.054687 10.519532 1.613281 16 1.613281 5.480469 0 10.832032-.558594 16-1.613281zm-16-136c-32.699218 0-59.707031-24.664063-63.496093-56.351563 2.351562.128906 4.695312.351563 7.0625.351563h112.855469c2.375 0 4.710937-.222657 7.074218-.351563-3.792968 31.6875-30.800781 56.351563-63.496094 56.351563zm148.285157-122.742188c-11.605469 18.566407-28.382813 32.933594-48.527344 41.574219l-1.238281.539062c-9.128906 3.910157-18.640625 6.398438-28.375 7.644532l5.589844-4.964844c33.214843-29.53125 52.265624-71.945312 52.265624-116.386719 0-21.269531-4.480468-42.390625-12.914062-61.871093 8.160156-9.09375 15.207031-19.09375 20.898438-29.9375l18.316406 36.648437c8.960937 17.914063 13.699218 37.976563 13.699218 58 0 24.34375-6.824218 48.113281-19.714843 68.753906zm0 0" data-original="#000000" class="active-path" style="fill:#311C90" data-old_color="#311D8A"/><path d="m176.445312 129.886719h16v72h-16zm0 0" data-original="#000000" class="active-path" style="fill:#311C90" data-old_color="#311D8A"/></g> </svg>
